<?xml version="1.0" encoding="utf-8"?>
<!-- Generator: Adobe Illustrator 28.2.0, SVG Export Plug-In . SVG Version: 6.00 Build 0)  -->
<svg version="1.1" id="Layer_1" xmlns="http://www.w3.org/2000/svg" xmlns:xlink="http://www.w3.org/1999/xlink" x="50px" y="50px"
	 viewBox="0 0 1999.44 1999.44" style="enable-background:new 0 0 1999.44 1999.44;" xml:space="preserve">
<style type="text/css">
	.st0{fill:#000000;}
</style>
<g>
	<path class="st0" d="M355.86,1278.82l26.22-26.22l96.97,86.15v151.48l179.37,151.48c0,0,41.62,24.14,25.39,51.19
		s-47.44,18.31-56.18,9.99c-8.74-8.32-12.07-32.88-16.65-42.45c-4.58-9.57-167.3-155.23-167.3-155.23l-3.33-152.32L355.86,1278.82z"
		/>
	<polygon class="st0" points="1280.45,426.86 1280.45,983.47 907.64,983.47 909.29,179.05 723.15,180.17 724.42,551.37 
		571.66,551.37 569.76,641.28 428.47,763.06 451.31,788.27 607.34,654.6 607.34,588 724.55,588 727.36,1406.58 611.39,1406.58 
		611.39,1342.91 450.75,1198.5 423.28,1222.64 573.93,1359.56 573.93,1443.2 727.48,1443.2 728.76,1815.08 905.93,1815.08 
		907.56,1020.22 1280.45,1020.22 1280.45,1558.29 1463.23,1558.29 1463.23,426.86 	"/>
	<path class="st0" d="M1005.97,178.59c0,0,457.2-57.15,757.24,251.82s233.96,825.11,66.08,1057.28
		c-152.8,211.32-419.7,373.26-828.68,330.4c0,0,482.21,39.29,689.38-360.76c0,0,144.33-208.23,98.23-609.01
		C1741.78,444.7,1413.16,157.16,1005.97,178.59z"/>
	<path class="st0" d="M637.01,290.64c-22.65,10.38-24.54,47.19-24.54,47.19L440.68,486.03l-0.47,155.74L306.17,755.51L182.52,649.79
		c0,0-0.47-64.18,0.47-72.21c0.94-8.02-13.69-45.78-51.44-50.03c-37.76-4.25-69.38,34.45-62.77,65.13s52.86,52.86,52.86,52.86
		L304.75,802.7l171.79-145.36l1.42-154.33l160.93-135.45c38.23-20.77,41.53-28.79,41.53-28.79
		C699.3,309.52,659.66,280.26,637.01,290.64z M126.18,610.37c-14.48,0-26.22-11.74-26.22-26.22c0-14.48,11.74-26.22,26.22-26.22
		c14.48,0,26.22,11.74,26.22,26.22C152.4,598.63,140.66,610.37,126.18,610.37z"/>
	<path class="st0" d="M432.51,809.51c-85.21,3.58-115.01,44.1-131.1,70.32c0,0-40.52-77.47-138.25-73.89
		C65.43,809.51,5.25,884.59,35.64,990.07c0,0,17.28,44.69,67.34,97.73l165.66,150.76c0,0-120.37,100.71-131.69,108.45
		c-11.32,7.75-43.5,26.22-43.5,26.22c-35.16,27.41-23.84,79.26,7.15,93.56c30.99,14.3,70.32-1.79,78.66-26.82
		c8.34-25.03,2.38-81.64,2.38-81.64l264.58-224.66c0,0,125.14-91.17,124.54-178.17S517.72,805.93,432.51,809.51z M127.5,1442.76
		c-14.36,0-26-11.64-26-26c0-14.36,11.64-26,26-26c14.36,0,26,11.64,26,26C153.5,1431.12,141.86,1442.76,127.5,1442.76z
		 M462.9,1074.69l-165.66,141.23l-155.53-137.06c-29.8-27.41-74.49-75.08-80.45-117.39C55.3,919.15,70.8,840.5,168.52,839.9
		c97.73-0.6,132.29,103.69,132.29,103.69c33.97-67.93,61.38-95.94,122.76-99.52c61.38-3.58,114.41,33.97,115.61,103.09
		C540.37,1016.29,462.9,1074.69,462.9,1074.69z"/>
</g>
</svg>
